<svg xmlns="http://www.w3.org/2000/svg" viewBox="0 0 240 172" width="240" height="172"><rect width="240" height="172" fill="#ffffff"/><path d="M89.6,0.0L149.4,0.0L194.2,10.7L224.1,32.1L239.0,64.1L239.0,106.9L230.7,138.9L214.1,160.3L189.1,171.0L155.9,171.0L130.9,170.7L114.1,170.1L105.6,169.1L105.4,167.9L103.8,166.8L100.8,165.9L96.4,165.3L90.6,164.8L85.4,164.1L80.6,163.2L76.4,162.1L72.6,160.9L69.1,159.6L65.9,158.2L62.9,156.8L60.1,155.3L56.9,153.1L53.1,150.2L48.9,146.6L44.1,142.4L39.9,138.3L36.3,134.3L33.3,130.4L30.8,126.6L28.6,123.9L26.9,122.3L25.5,121.8L24.5,122.3L23.9,123.1L23.6,124.2L23.8,125.6L24.3,127.4L25.1,129.3L26.2,131.4L27.6,133.8L29.4,136.3L31.5,138.9L34.0,141.8L36.9,144.9L40.1,148.1L44.1,151.4L48.7,154.8L54.0,158.3L60.0,161.8L65.6,164.6L70.9,166.9L75.8,168.5L80.3,169.5L78.2,170.3L69.6,170.8L54.4,171.0L32.6,171.0L16.3,160.4L5.4,139.1L0.0,107.3L0.0,64.8L0.0,32.8L0.0,11.4L0.0,0.6L0.0,0.4L14.9,0.2L44.8,0.1Z M223.1,0.6L219.9,0.4L215.4,0.4L209.8,0.6L203.0,1.1L195.0,1.9L185.2,3.1L173.6,4.9L160.1,7.1L144.9,9.9L131.2,12.6L119.1,15.4L108.5,18.1L99.5,20.9L90.6,24.0L81.7,27.5L72.9,31.4L64.1,35.6L56.4,39.6L49.8,43.4L44.3,46.9L39.8,50.1L35.6,53.4L31.7,56.6L28.1,59.9L24.9,63.1L21.6,66.9L18.2,71.3L14.8,76.3L11.3,81.8L8.4,86.8L6.1,91.3L4.5,95.3L3.5,98.8L2.8,102.6L2.3,106.9L2.0,111.5L2.0,116.5L2.4,121.6L3.3,126.7L4.6,131.9L6.4,137.1L7.8,141.1L8.9,143.7L9.8,145.0L10.3,145.0L10.8,144.2L11.3,142.6L11.8,140.1L12.3,136.9L13.1,133.5L14.2,130.0L15.6,126.4L17.4,122.6L19.7,118.4L22.6,113.8L26.0,108.8L30.0,103.3L34.4,97.8L39.3,92.3L44.6,86.8L50.4,81.3L56.9,75.6L64.1,69.7L72.1,63.6L80.9,57.4L89.3,51.7L97.4,46.6L105.3,42.0L112.8,38.0L120.4,34.2L128.1,30.6L136.0,27.1L144.0,23.9L153.1,20.6L163.2,17.2L174.4,13.8L186.6,10.3L197.2,7.4L206.1,5.3L213.3,3.9L218.8,3.1L222.9,2.5L225.8,2.0L227.4,1.6L227.6,1.4L227.0,1.1L225.5,0.9Z M226.9,4.0L226.1,4.0L225.7,4.1L225.6,4.2L225.8,4.4L226.3,4.6L226.7,4.8L227.1,4.8L227.4,4.6L227.6,4.4L227.6,4.2L227.4,4.1Z M224.8,5.6L225.3,5.4L225.4,5.1L225.1,4.9L224.5,4.6L223.5,4.4L221.6,4.5L218.7,5.0L214.9,5.9L210.1,7.1L204.9,8.6L199.1,10.4L192.9,12.4L186.1,14.6L180.2,16.8L175.1,18.8L170.8,20.6L167.3,22.4L165.3,24.7L164.9,27.6L166.1,31.0L168.9,35.0L171.3,38.9L173.4,42.6L175.3,46.3L176.8,49.8L178.6,51.6L180.7,51.9L183.1,50.5L185.9,47.5L189.1,44.5L192.9,41.5L197.1,38.5L201.9,35.5L205.1,33.2L206.7,31.6L206.8,30.6L205.3,30.4L202.9,30.5L199.6,31.0L195.5,31.9L190.5,33.1L186.8,33.9L184.4,34.1L183.4,33.9L183.6,33.1L185.1,31.6L187.7,29.2L191.5,26.0L196.5,22.0L201.4,18.4L206.3,15.3L211.1,12.6L215.9,10.4L219.5,8.6L222.0,7.4L223.4,6.6L223.6,6.4L223.9,6.1L224.3,5.9Z M151.6,30.0L149.4,30.0L144.8,31.3L137.9,33.9L128.8,37.9L117.3,43.1L107.6,47.8L99.7,51.8L93.6,55.1L89.4,57.9L84.3,61.5L78.3,66.0L71.4,71.4L63.6,77.6L57.0,83.3L51.5,88.4L47.1,93.0L43.9,97.0L41.6,100.9L40.4,104.6L40.1,108.3L40.9,111.8L42.0,115.2L43.5,118.6L45.4,121.9L47.6,125.1L50.3,128.3L53.3,131.4L56.6,134.5L60.4,137.5L63.9,140.1L67.3,142.2L70.5,143.9L73.5,145.1L76.3,146.2L78.9,147.1L81.4,147.8L83.6,148.3L87.1,148.6L91.7,148.7L97.5,148.6L104.5,148.4L110.9,147.6L116.8,146.4L122.1,144.6L126.9,142.4L131.3,139.9L135.4,137.3L139.3,134.5L142.8,131.5L145.9,128.6L148.6,125.7L151.0,122.9L153.0,120.1L154.8,117.4L156.4,114.6L157.9,111.9L159.1,109.1L160.3,106.3L161.3,103.3L162.1,100.1L162.9,96.9L163.4,94.3L163.8,92.3L164.0,90.9L164.0,90.1L163.9,89.5L163.6,89.0L163.3,88.6L162.8,88.4L162.9,88.1L163.6,87.9L165.0,87.6L167.0,87.4L168.2,88.8L168.6,91.8L168.1,96.4L166.9,102.6L165.4,108.3L163.6,113.4L161.6,118.0L159.4,122.0L156.7,125.9L153.6,129.8L150.0,133.6L146.0,137.4L142.3,140.6L138.9,143.2L135.9,145.3L133.1,146.8L130.3,148.1L127.3,149.4L124.1,150.5L120.9,151.5L118.3,152.5L116.4,153.5L115.3,154.5L114.8,155.5L114.5,156.4L114.5,157.1L114.8,157.8L115.3,158.3L115.9,158.6L116.8,158.9L117.9,159.0L119.1,159.0L121.6,158.3L125.4,156.8L130.4,154.5L136.6,151.5L142.5,147.9L148.0,143.8L153.1,139.1L157.9,133.9L161.8,129.2L164.9,125.1L167.3,121.5L168.8,118.5L170.2,115.0L171.6,111.0L172.9,106.5L174.1,101.5L175.1,96.5L175.7,91.5L176.0,86.5L176.0,81.5L175.9,77.1L175.6,73.4L175.3,70.3L174.8,67.8L173.8,64.6L172.4,60.7L170.6,56.1L168.4,50.9L166.1,46.2L163.9,42.1L161.6,38.5L159.4,35.5L157.6,33.2L156.4,31.6L155.6,30.6L155.4,30.4L154.6,30.2L153.4,30.1Z M186.9,80.6L186.1,80.4L185.4,80.3L184.6,80.4L183.9,80.8L183.1,81.3L182.5,82.6L182.0,84.7L181.6,87.6L181.4,91.4L181.0,94.9L180.5,98.3L179.9,101.5L179.1,104.5L177.9,108.2L176.1,112.6L173.9,117.6L171.1,123.4L168.6,128.3L166.4,132.3L164.4,135.4L162.6,137.6L160.4,140.1L157.8,142.7L154.8,145.5L151.3,148.5L147.3,151.4L142.8,154.1L137.8,156.8L132.3,159.3L128.0,161.3L125.0,162.9L123.3,164.1L122.8,164.9L122.6,165.7L122.7,166.6L123.1,167.5L123.9,168.5L125.0,169.1L126.5,169.2L128.4,168.9L130.6,168.1L133.5,166.9L137.0,165.1L141.1,162.9L145.9,160.1L150.6,156.9L155.2,153.1L159.8,148.9L164.3,144.1L168.5,138.8L172.5,132.8L176.3,126.1L179.8,118.9L182.6,112.5L184.7,107.0L186.1,102.4L186.9,98.6L187.4,95.1L187.8,91.9L188.0,88.9L188.0,86.1L188.0,84.0L188.0,82.5L188.0,81.6L188.0,81.4L187.8,81.1L187.4,80.9Z M34.6,110.6L34.4,110.4L33.9,110.4L33.3,110.8L32.5,111.5L31.5,112.5L30.9,113.7L30.8,115.1L31.1,116.6L31.9,118.4L32.9,120.4L34.1,122.6L35.6,125.1L37.4,127.9L39.6,130.9L42.4,134.1L45.6,137.6L49.4,141.4L53.2,144.8L57.1,147.8L61.0,150.4L65.0,152.6L68.8,154.6L72.4,156.2L75.9,157.5L79.1,158.5L82.8,159.3L86.8,159.9L91.1,160.4L95.9,160.6L99.6,160.7L102.2,160.6L103.8,160.3L104.3,159.8L104.5,159.1L104.5,158.2L104.3,157.1L103.8,155.9L101.9,154.8L98.8,153.9L94.4,153.3L88.6,152.8L82.9,151.7L77.3,150.1L71.8,147.9L66.3,145.1L61.3,142.2L56.8,139.1L52.8,135.8L49.3,132.3L46.1,128.7L43.4,125.1L41.0,121.4L39.0,117.6L37.4,114.8L36.3,112.8L35.6,111.6L35.4,111.4L35.1,111.1L34.9,110.9Z" fill="#fbfdfd"/><path d="M219.5,1.0L222.5,1.0L224.3,1.0L224.9,1.0L224.4,1.0L222.6,1.0L219.1,1.5L213.9,2.5L206.9,4.0L198.1,6.0L189.1,8.3L179.7,10.9L170.0,13.9L160.0,17.1L149.6,20.9L138.9,25.3L127.8,30.3L116.3,35.8L105.8,41.1L96.4,46.4L88.1,51.5L80.9,56.5L76.3,59.6L74.4,60.7L75.3,59.9L78.8,57.1L83.0,54.1L88.0,50.7L93.8,47.0L100.3,43.0L104.9,39.8L107.8,37.3L108.9,35.5L108.1,34.5L107.1,33.5L105.9,32.5L104.4,31.5L102.6,30.5L101.1,29.4L99.9,28.3L98.9,27.1L98.1,25.9L95.9,25.5L92.3,26.0L87.3,27.4L80.8,29.6L74.6,32.0L68.9,34.5L63.5,37.1L58.5,39.9L53.6,42.8L48.9,45.8L44.3,48.9L39.8,52.1L35.4,55.6L31.1,59.4L27.0,63.4L23.0,67.6L19.4,71.9L16.1,76.1L13.3,80.4L10.8,84.6L9.5,86.7L9.5,86.6L10.8,84.3L13.3,79.8L16.1,75.3L19.4,70.9L23.0,66.6L27.0,62.4L31.1,58.4L35.4,54.6L39.8,51.1L44.3,47.9L49.2,44.6L54.6,41.4L60.4,38.1L66.6,34.9L73.3,31.8L80.3,28.8L87.6,25.9L95.4,23.1L103.8,20.4L112.9,17.8L122.8,15.3L133.3,12.8L143.8,10.5L154.4,8.5L165.1,6.8L175.9,5.3L185.3,4.1L193.4,3.2L200.3,2.6L205.8,2.4L209.9,2.1L212.8,1.9L214.4,1.6L214.6,1.4L215.6,1.2L217.2,1.1Z M217.8,8.1L212.3,10.9L206.8,14.0L201.4,17.5L196.1,21.4L190.9,25.6L186.9,29.1L184.3,31.7L183.0,33.5L183.0,34.5L184.6,34.9L187.7,34.8L192.4,34.1L198.6,32.9L202.2,32.6L203.1,33.4L201.3,35.1L196.8,37.9L192.7,40.7L189.1,43.6L185.9,46.5L183.1,49.5L180.9,51.3L179.1,51.8L177.9,51.0L177.1,49.0L176.8,47.9L176.9,47.6L177.5,48.3L178.5,49.8L179.6,50.4L180.7,50.3L181.9,49.4L183.1,47.6L183.1,45.0L181.7,41.5L179.0,37.1L175.0,31.9L171.6,28.1L168.9,25.7L166.8,24.8L165.3,25.3L164.8,26.5L165.3,28.5L166.8,31.3L169.3,34.8L170.5,36.4L170.5,36.3L169.3,34.4L166.8,30.6L167.4,26.9L171.1,23.1L178.0,19.4L188.0,15.6L196.9,12.5L204.6,10.0L211.3,8.1L216.8,6.9L220.9,5.9L223.8,5.1L225.4,4.6L225.6,4.4L224.4,4.9L221.8,6.1Z M151.5,30.0L152.5,30.0L153.5,30.3L154.5,30.8L155.5,31.5L156.5,32.5L157.6,33.8L158.9,35.4L160.3,37.4L161.8,39.6L163.4,42.6L165.3,46.4L167.4,50.9L169.6,56.1L171.4,60.7L172.8,64.6L173.8,67.8L174.3,70.3L174.6,73.4L174.9,77.1L175.0,81.5L175.0,86.5L174.8,91.1L174.4,95.4L173.9,99.3L173.1,102.8L171.9,106.7L170.3,111.1L168.3,115.9L165.8,121.1L162.9,126.1L159.6,130.9L156.0,135.4L152.0,139.6L148.0,143.4L144.0,146.6L140.0,149.4L136.0,151.6L132.1,153.5L128.4,155.0L124.8,156.1L121.3,156.9L118.6,157.3L116.7,157.3L115.6,156.9L115.4,156.1L115.4,155.4L115.6,154.8L116.1,154.3L116.9,153.8L117.6,153.4L118.2,153.1L118.8,153.0L119.3,153.0L119.4,153.1L119.1,153.2L118.5,153.4L117.5,153.6L116.8,154.0L116.3,154.5L116.0,155.1L116.0,155.9L116.5,156.4L117.5,156.8L119.0,157.0L121.0,157.0L123.9,156.3L127.8,154.8L132.6,152.5L138.4,149.5L143.8,145.9L148.9,141.8L153.8,137.1L158.3,131.9L162.1,126.7L165.4,121.6L168.0,116.5L170.0,111.5L171.6,107.1L172.7,103.4L173.4,100.3L173.6,97.8L173.7,95.7L173.6,94.1L173.3,92.9L172.8,92.1L172.0,92.9L171.0,95.1L169.8,98.9L168.3,104.1L166.8,108.7L165.4,112.6L164.1,115.8L162.9,118.3L160.9,121.3L158.3,124.8L155.0,128.8L151.0,133.3L149.0,135.5L149.0,135.5L151.0,133.3L155.0,128.8L158.5,124.2L161.5,119.6L164.0,114.9L166.0,110.1L167.6,105.6L168.9,101.2L169.8,97.0L170.3,93.0L170.1,90.0L169.2,88.0L167.6,87.0L165.4,87.0L163.8,87.3L162.8,87.9L162.4,88.9L162.6,90.1L162.6,91.9L162.4,94.1L161.9,96.9L161.1,100.1L160.3,103.3L159.3,106.3L158.1,109.1L156.9,111.9L155.4,114.6L153.8,117.4L152.0,120.1L150.0,122.9L147.4,125.8L144.1,128.9L140.3,132.3L135.8,135.8L131.4,138.8L127.1,141.3L123.0,143.3L119.0,144.8L116.0,145.8L114.0,146.3L113.0,146.3L113.0,145.8L113.8,145.2L115.4,144.6L117.9,143.9L121.1,143.1L124.4,142.0L127.8,140.5L131.3,138.6L134.8,136.4L138.2,133.8L141.6,130.8L144.9,127.4L148.1,123.6L151.1,119.7L153.7,115.6L156.0,111.3L158.0,106.8L159.5,102.6L160.5,98.9L161.0,95.5L161.0,92.5L161.1,90.1L161.4,88.2L161.8,86.9L162.3,86.1L162.5,84.5L162.5,82.0L162.3,78.6L161.8,74.4L160.8,69.9L159.4,65.3L157.6,60.5L155.4,55.5L153.1,51.3L150.9,47.8L148.6,45.0L146.4,43.0L144.7,41.4L143.6,40.1L143.0,39.3L143.0,38.8L143.6,38.0L144.9,37.0L146.8,35.8L149.3,34.3L151.0,33.0L152.0,32.0L152.3,31.3L151.8,30.8L151.3,30.4L150.9,30.1L150.6,30.0L150.4,30.0L150.4,30.0L150.8,30.0Z M111.6,35.6L111.4,35.4L111.2,35.3L111.1,35.4L111.0,35.8L111.0,36.3L111.1,36.6L111.2,36.7L111.4,36.6L111.6,36.4L111.8,36.1L111.8,35.9Z M145.6,38.6L145.4,38.4L145.1,38.3L144.9,38.4L144.6,38.8L144.4,39.3L144.4,39.6L144.6,39.9L145.1,40.0L145.9,40.0L146.4,39.9L146.6,39.8L146.6,39.6L146.4,39.4L146.1,39.1L145.9,38.9Z M150.6,42.6L150.4,42.4L150.2,42.3L150.1,42.4L150.0,42.8L150.0,43.3L150.1,43.6L150.2,43.7L150.4,43.6L150.6,43.4L150.8,43.1L150.8,42.9Z M151.9,44.0L151.1,44.0L151.3,45.4L152.3,48.1L154.1,52.3L156.9,57.8L159.1,63.1L160.7,68.4L161.8,73.5L162.3,78.5L163.1,82.3L164.2,84.8L165.6,86.0L167.4,86.0L168.8,85.7L169.8,85.1L170.4,84.1L170.6,82.9L171.0,81.9L171.5,81.1L172.1,80.6L172.9,80.4L173.3,80.1L173.3,79.7L172.9,79.3L172.1,78.8L171.5,78.0L171.0,77.0L170.6,75.8L170.4,74.3L169.6,71.9L168.2,68.8L166.3,64.9L163.8,60.1L161.4,56.1L159.3,52.7L157.4,50.0L155.6,48.0L154.3,46.4L153.4,45.3L153.0,44.6L153.0,44.4L152.8,44.2L152.4,44.1Z M111.6,52.8L111.4,53.3L111.4,53.7L111.6,54.1L112.1,54.4L112.9,54.6L113.3,54.7L113.3,54.6L112.9,54.3L112.1,53.8L111.6,53.3L111.4,52.9L111.4,52.6L111.6,52.4L111.8,52.3L111.8,52.4Z M123.4,62.0L125.6,64.0L127.4,65.8L128.6,67.3L129.4,68.5L129.6,69.5L129.6,70.1L129.2,70.4L128.5,70.3L127.5,69.8L126.8,69.1L126.3,68.4L126.0,67.5L126.0,66.5L125.7,65.4L125.1,64.3L124.1,63.1L122.9,61.9L121.9,60.9L121.1,60.1L120.6,59.6L120.4,59.4L120.8,59.7L121.8,60.6Z M66.9,66.1L66.1,66.9L65.7,67.3L65.6,67.4L65.8,67.3L66.3,66.8L66.7,66.3L67.1,65.9L67.4,65.6L67.6,65.4L67.6,65.4L67.4,65.6Z M127.3,67.0L126.8,67.0L126.4,67.1L126.3,67.4L126.4,67.8L126.6,68.3L126.9,68.6L127.1,68.7L127.4,68.6L127.6,68.4L127.8,68.1L127.9,67.9L128.0,67.6L128.0,67.4L127.9,67.2L127.6,67.1Z M168.6,67.6L168.4,67.4L168.2,67.3L168.1,67.4L168.0,67.8L168.0,68.3L168.1,68.6L168.2,68.7L168.4,68.6L168.6,68.4L168.8,68.1L168.8,67.9Z M61.3,70.8L60.8,71.3L60.4,71.6L60.3,71.7L60.4,71.6L60.6,71.4L60.9,71.1L61.1,70.9L61.4,70.6L61.6,70.4L61.7,70.3L61.6,70.4Z M49.8,80.9L44.3,86.1L41.4,88.8L41.3,88.9L43.9,86.5L49.1,81.5L53.1,77.7L55.9,75.1L57.4,73.6L57.6,73.4L56.4,74.5L53.8,77.0Z M64.3,77.8L63.8,78.3L63.4,78.6L63.3,78.7L63.4,78.6L63.6,78.4L63.9,78.1L64.1,77.9L64.4,77.6L64.6,77.4L64.7,77.3L64.6,77.4Z M97.9,79.8L99.1,80.3L100.3,81.0L101.3,82.0L102.1,83.3L102.9,84.8L103.4,86.2L103.6,87.6L103.6,88.9L103.4,90.1L102.8,91.4L101.8,92.8L100.4,94.3L98.6,95.8L96.8,96.4L94.9,96.3L93.0,95.4L91.0,93.6L89.6,91.8L88.7,89.9L88.4,88.0L88.6,86.0L89.0,84.3L89.5,82.9L90.1,81.9L90.9,81.1L91.6,80.6L92.4,80.2L93.1,80.0L93.9,80.0L94.5,79.9L95.0,79.8L95.4,79.6L95.6,79.4L96.1,79.3L96.9,79.4Z M185.8,81.0L186.3,81.0L186.6,81.8L186.9,83.3L187.0,85.5L187.0,88.5L186.8,91.7L186.4,95.1L185.9,98.6L185.1,102.4L183.7,107.0L181.6,112.5L178.8,118.9L175.3,126.1L171.6,132.7L167.7,138.6L163.6,143.8L159.4,148.3L155.6,152.0L152.4,155.0L149.6,157.3L147.4,158.8L144.5,160.4L141.0,162.1L136.9,164.0L132.1,166.0L128.4,167.3L125.8,167.9L124.3,167.9L123.8,167.1L123.4,166.4L123.3,165.8L123.4,165.3L123.6,164.8L125.2,163.8L128.1,162.3L132.3,160.3L137.8,157.8L142.4,155.4L146.3,153.3L149.4,151.4L151.6,149.6L154.1,147.4L156.9,144.6L159.9,141.4L163.1,137.6L166.3,133.4L169.3,128.6L172.1,123.4L174.9,117.6L177.3,111.6L179.3,105.4L180.9,98.9L182.1,92.1L183.1,87.0L183.9,83.5L184.4,81.6L184.6,81.4L184.9,81.2L185.3,81.1Z M57.9,83.1L57.1,83.9L56.7,84.3L56.6,84.4L56.8,84.3L57.3,83.8L57.7,83.3L58.1,82.9L58.4,82.6L58.6,82.4L58.6,82.4L58.4,82.6Z M91.6,86.6L91.4,86.4L91.2,86.3L91.1,86.4L91.0,86.8L91.0,87.3L91.1,87.6L91.2,87.7L91.4,87.6L91.6,87.4L91.8,87.1L91.8,86.9Z M50.1,89.9L48.9,91.1L48.2,91.8L48.1,91.9L48.5,91.5L49.5,90.5L50.3,89.7L50.9,89.1L51.4,88.6L51.6,88.4L51.5,88.5L51.0,89.0Z M33.9,97.1L33.1,97.9L32.7,98.3L32.6,98.4L32.8,98.3L33.3,97.8L33.7,97.3L34.1,96.9L34.4,96.6L34.6,96.4L34.6,96.4L34.4,96.6Z M130.0,100.1L130.0,100.9L129.9,101.3L129.8,101.4L129.6,101.3L129.4,100.8L129.3,100.3L129.3,99.9L129.4,99.6L129.6,99.4L129.8,99.4L129.9,99.6Z M41.4,103.1L41.6,103.9L41.7,104.5L41.6,105.0L41.3,105.4L40.8,105.6L40.4,105.6L40.1,105.4L40.0,104.9L40.0,104.1L40.1,103.5L40.2,103.0L40.4,102.6L40.6,102.4L40.9,102.4L41.1,102.6Z M151.0,104.1L151.0,104.9L150.9,105.3L150.8,105.4L150.6,105.3L150.4,104.8L150.3,104.3L150.3,103.9L150.4,103.6L150.6,103.4L150.8,103.4L150.9,103.6Z M3.0,105.1L3.0,105.9L3.0,106.3L3.0,106.4L3.0,106.3L3.0,105.8L3.0,105.3L3.0,104.9L3.0,104.6L3.0,104.4L3.0,104.4L3.0,104.6Z M18.3,120.1L15.8,124.9L13.8,129.3L12.3,133.3L11.3,136.9L10.8,140.1L10.3,142.4L9.9,143.8L9.6,144.3L9.4,143.8L9.5,142.3L10.0,139.9L10.9,136.6L12.1,132.4L13.5,128.4L15.0,124.8L16.6,121.5L18.4,118.5L19.8,116.2L20.8,114.6L21.4,113.6L21.6,113.4L21.2,114.4L20.1,116.6Z M36.8,115.5L37.3,116.5L37.5,117.1L37.5,117.2L37.3,116.9L36.8,116.1L36.4,115.5L36.1,115.0L36.0,114.6L36.0,114.4L36.1,114.4L36.4,114.8Z M33.8,120.1L34.3,120.9L34.6,121.3L34.7,121.4L34.6,121.3L34.4,120.8L34.1,120.3L33.9,119.9L33.6,119.6L33.4,119.4L33.3,119.4L33.4,119.6Z M3.0,122.1L3.0,122.9L3.0,123.3L3.0,123.4L3.0,123.3L3.0,122.8L3.0,122.3L3.0,121.9L3.0,121.6L3.0,121.4L3.0,121.4L3.0,121.6Z M25.3,122.8L24.8,123.3L24.4,123.6L24.3,123.7L24.4,123.6L24.6,123.4L24.9,123.1L25.1,122.9L25.4,122.6L25.6,122.4L25.7,122.3L25.6,122.4Z M43.4,126.5L45.6,129.5L46.8,131.1L46.9,131.2L46.0,129.9L44.0,127.1L42.4,125.0L41.3,123.5L40.6,122.6L40.4,122.4L40.8,122.9L41.8,124.3Z M70.8,123.4L71.3,123.6L71.6,124.0L71.7,124.5L71.6,125.1L71.4,125.9L71.1,126.3L70.7,126.3L70.3,125.9L69.8,125.1L69.4,124.5L69.3,124.0L69.4,123.6L69.6,123.4L69.9,123.3L70.3,123.3Z M28.8,125.1L29.3,125.9L29.6,126.3L29.7,126.4L29.6,126.3L29.4,125.8L29.1,125.3L28.9,124.9L28.6,124.6L28.4,124.4L28.3,124.4L28.4,124.6Z M38.6,127.8L40.4,130.3L42.6,133.0L45.4,136.0L48.6,139.3L52.4,142.8L56.0,145.8L59.5,148.4L62.9,150.6L66.1,152.4L69.7,153.9L73.6,155.3L77.8,156.5L82.3,157.5L85.1,158.2L86.2,158.6L85.6,158.6L83.4,158.4L80.5,157.7L77.0,156.6L72.9,155.0L68.1,153.0L63.7,150.8L59.6,148.4L55.8,145.9L52.3,143.1L49.0,140.2L46.0,137.1L43.3,133.8L40.8,130.3L38.8,127.6L37.4,125.7L36.6,124.6L36.4,124.4L36.6,124.8L37.4,125.9Z M37.8,136.5L42.3,141.5L46.4,145.8L50.1,149.3L53.5,152.0L56.5,154.0L60.3,156.1L64.9,158.2L70.4,160.4L76.6,162.6L82.5,164.4L88.0,165.6L93.1,166.4L97.9,166.6L101.4,167.1L103.8,167.7L105.0,168.5L105.0,169.5L103.6,170.2L100.9,170.6L96.8,170.6L91.3,170.4L86.3,169.9L81.8,169.3L77.8,168.5L74.3,167.5L70.8,166.3L67.3,164.9L63.8,163.4L60.3,161.6L57.0,159.9L54.0,158.1L51.3,156.4L48.8,154.6L46.1,152.6L43.4,150.2L40.5,147.5L37.5,144.5L34.9,141.8L32.8,139.4L31.1,137.4L29.9,135.6L29.1,134.5L28.9,134.0L29.1,134.1L29.9,134.9L30.6,135.3L31.2,135.3L31.8,134.9L32.3,134.1L32.6,133.4L32.7,132.6L32.6,131.9L32.4,131.1L32.1,130.5L31.9,130.0L31.6,129.6L31.4,129.4L32.3,130.4L34.4,132.8Z M54.8,138.8L55.3,139.3L55.6,139.6L55.7,139.7L55.6,139.6L55.4,139.4L55.1,139.1L54.9,138.9L54.6,138.6L54.4,138.4L54.3,138.3L54.4,138.4Z M111.8,139.0L112.3,139.0L112.5,139.1L112.5,139.2L112.3,139.4L111.8,139.6L111.4,139.8L111.1,139.8L111.0,139.6L111.0,139.4L111.1,139.2L111.4,139.1Z M142.3,141.8L141.8,142.3L141.4,142.6L141.3,142.7L141.4,142.6L141.6,142.4L141.9,142.1L142.1,141.9L142.4,141.6L142.6,141.4L142.7,141.3L142.6,141.4Z M133.8,147.1L132.3,147.9L131.4,148.3L131.3,148.4L131.9,148.3L133.1,147.8L134.1,147.3L134.9,146.9L135.4,146.6L135.6,146.4L135.4,146.4L134.8,146.6Z M68.5,147.8L69.5,148.3L70.1,148.6L70.2,148.7L69.9,148.6L69.1,148.4L68.5,148.1L68.0,147.9L67.6,147.6L67.4,147.4L67.4,147.3L67.8,147.4Z M88.1,148.0L88.9,148.0L89.3,148.0L89.4,148.0L89.3,148.0L88.8,148.0L88.3,148.0L87.9,148.0L87.6,148.0L87.4,148.0L87.4,148.0L87.6,148.0Z M74.1,150.4L74.9,150.6L75.3,150.8L75.4,150.8L75.3,150.6L74.8,150.4L74.3,150.2L73.9,150.1L73.6,150.0L73.4,150.0L73.4,150.1L73.6,150.2Z M84.0,153.4L86.0,153.6L87.1,153.8L87.2,153.8L86.4,153.6L84.6,153.4L83.3,153.2L82.3,153.1L81.6,153.0L81.4,153.0L81.7,153.1L82.6,153.2Z M96.1,155.0L98.9,155.0L101.0,155.3L102.5,155.8L103.4,156.5L103.6,157.5L103.0,158.3L101.5,158.9L99.1,159.4L95.9,159.6L94.3,159.8L94.3,159.8L95.9,159.6L99.1,159.4L101.5,158.9L103.0,158.3L103.6,157.5L103.4,156.5L102.6,155.8L101.2,155.3L99.3,155.0L96.8,155.0L94.8,155.0L93.4,155.0L92.6,155.0L92.4,155.0L92.9,155.0L94.1,155.0Z" fill="#1fb8b7"/><path d="M100.9,29.5L104.1,32.5L105.8,35.2L105.8,37.6L104.1,39.6L100.9,41.4L96.7,43.9L91.6,47.3L85.5,51.5L78.5,56.5L72.3,61.0L66.9,65.0L62.4,68.5L58.6,71.5L54.7,74.9L50.6,78.6L46.3,82.8L41.8,87.3L37.2,92.3L32.6,97.8L27.9,103.8L23.1,110.3L19.1,116.5L15.9,122.5L13.4,128.3L11.6,133.8L10.0,136.9L8.5,137.8L7.1,136.4L5.9,132.6L4.9,128.6L4.1,124.4L3.6,119.9L3.4,115.1L3.4,110.6L3.8,106.2L4.5,102.0L5.5,98.0L6.8,94.1L8.3,90.4L10.0,86.8L12.0,83.3L14.6,79.4L17.9,75.1L21.8,70.5L26.3,65.5L30.8,60.9L35.3,56.8L39.8,53.1L44.3,49.9L48.9,46.8L53.6,43.8L58.5,40.9L63.5,38.1L68.8,35.6L74.3,33.2L80.0,31.0L86.0,29.0L90.6,27.4L93.7,26.3L95.4,25.6L95.6,25.4L96.6,25.9L98.4,27.3Z M167.5,25.4L168.5,25.6L169.9,26.9L171.8,29.1L174.1,32.4L176.9,36.6L179.1,39.9L180.9,42.3L182.1,43.8L182.9,44.3L183.2,45.0L183.1,46.0L182.5,47.3L181.5,48.8L179.8,48.3L177.4,45.9L174.4,41.6L170.6,35.4L167.9,30.6L166.1,27.4L165.4,25.6L165.6,25.4L166.1,25.3L166.7,25.3Z M149.5,31.4L150.5,31.6L150.7,32.1L150.1,32.9L148.6,33.9L146.4,35.1L144.6,36.3L143.4,37.3L142.6,38.1L142.4,38.9L142.6,39.7L143.2,40.6L144.3,41.5L145.8,42.5L147.4,44.1L149.1,46.2L151.0,48.9L153.0,52.1L154.8,55.3L156.3,58.3L157.5,61.1L158.5,63.9L159.4,67.0L160.1,70.5L160.8,74.4L161.3,78.6L161.5,82.0L161.5,84.5L161.3,86.1L160.8,86.9L160.4,87.8L160.3,88.9L160.4,90.3L160.6,91.8L160.6,93.8L160.2,96.4L159.5,99.6L158.5,103.4L157.1,107.3L155.2,111.3L152.9,115.4L150.1,119.6L146.9,123.7L143.3,127.6L139.3,131.3L134.8,134.8L129.8,137.9L124.3,140.6L118.3,143.0L111.8,145.0L105.4,146.4L99.3,147.1L93.4,147.3L87.6,146.8L82.1,145.8L76.7,144.3L71.5,142.3L66.5,139.8L62.2,137.3L58.6,134.9L55.6,132.6L53.4,130.4L51.3,127.9L49.3,125.3L47.4,122.5L45.6,119.5L44.2,116.7L43.1,114.1L42.3,111.6L41.8,109.4L41.5,107.6L41.5,106.4L41.8,105.6L42.3,105.4L42.6,104.9L42.7,104.3L42.6,103.5L42.4,102.5L42.4,101.4L42.8,100.1L43.5,98.8L44.5,97.3L46.6,94.9L49.9,91.6L54.3,87.5L59.8,82.5L65.3,77.7L70.9,73.1L76.6,68.6L82.4,64.4L88.6,60.2L95.2,56.1L102.3,52.0L109.8,48.0L117.0,44.4L124.0,41.1L130.8,38.3L137.3,35.8L142.2,33.8L145.6,32.4L147.4,31.6L147.6,31.4L148.1,31.3L148.7,31.3Z M151.9,44.5L153.1,45.5L154.8,47.6L156.8,50.7L159.1,54.9L161.9,60.1L164.1,64.1L165.7,66.7L166.8,68.0L167.3,68.0L167.6,68.1L167.7,68.4L167.6,68.8L167.4,69.3L167.4,70.1L167.6,71.4L168.1,73.0L168.9,75.0L169.6,76.6L170.4,77.9L171.1,78.8L171.9,79.3L172.3,79.7L172.3,80.1L171.9,80.4L171.1,80.6L170.6,81.1L170.2,81.7L170.0,82.5L170.0,83.5L169.6,84.3L168.9,84.9L167.8,85.4L166.3,85.6L165.0,84.6L164.0,82.2L163.3,78.5L162.8,73.5L161.7,68.4L160.1,63.1L157.9,57.8L155.1,52.3L153.0,48.1L151.5,45.2L150.6,43.6L150.4,43.4L150.5,43.4L151.0,43.8Z M113.3,51.6L112.8,51.4L112.3,51.4L111.8,51.6L111.3,52.1L110.8,52.9L110.6,53.6L110.9,54.2L111.5,54.8L112.5,55.3L113.3,55.4L113.8,55.3L114.0,54.9L114.0,54.1L114.0,53.5L114.0,53.0L114.0,52.6L114.0,52.4L113.9,52.1L113.6,51.9Z M146.6,54.6L146.4,54.4L146.2,54.3L146.1,54.4L146.0,54.8L146.0,55.3L146.1,55.6L146.2,55.7L146.4,55.6L146.6,55.4L146.8,55.1L146.8,54.9Z M116.6,55.6L116.4,55.4L116.2,55.3L116.1,55.4L116.0,55.8L116.0,56.3L116.1,56.6L116.2,56.7L116.4,56.6L116.6,56.4L116.8,56.1L116.8,55.9Z M147.6,55.6L147.4,55.4L147.2,55.3L147.1,55.4L147.0,55.8L147.0,56.3L147.1,56.6L147.2,56.7L147.4,56.6L147.6,56.4L147.8,56.1L147.8,55.9Z M148.6,57.6L148.4,57.4L148.2,57.3L148.1,57.4L148.0,57.8L148.0,58.3L148.1,58.6L148.2,58.7L148.4,58.6L148.6,58.4L148.8,58.1L148.8,57.9Z M120.6,58.6L120.4,58.4L120.2,58.3L120.1,58.4L120.0,58.8L120.0,59.3L120.1,59.6L120.2,59.7L120.4,59.6L120.6,59.4L120.8,59.1L120.8,58.9Z M121.6,59.6L121.4,59.4L121.2,59.3L121.1,59.4L121.0,59.8L121.0,60.3L121.1,60.6L121.2,60.7L121.4,60.6L121.6,60.4L121.8,60.1L121.8,59.9Z M149.6,59.6L149.4,59.4L149.2,59.3L149.1,59.4L149.0,59.8L149.0,60.3L149.1,60.6L149.2,60.7L149.4,60.6L149.6,60.4L149.8,60.1L149.8,59.9Z M122.6,60.6L122.4,60.4L122.2,60.3L122.1,60.4L122.0,60.8L122.0,61.3L122.1,61.6L122.2,61.7L122.4,61.6L122.6,61.4L122.8,61.1L122.8,60.9Z M123.6,61.6L123.4,61.4L123.2,61.3L123.1,61.4L123.0,61.8L123.0,62.3L123.1,62.6L123.2,62.7L123.4,62.6L123.6,62.4L123.8,62.1L123.8,61.9Z M150.6,61.6L150.4,61.4L150.2,61.3L150.1,61.4L150.0,61.8L150.0,62.3L150.1,62.6L150.2,62.7L150.4,62.6L150.6,62.4L150.8,62.1L150.8,61.9Z M124.6,62.6L124.4,62.4L124.2,62.3L124.1,62.4L124.0,62.8L124.0,63.3L124.1,63.6L124.2,63.7L124.4,63.6L124.6,63.4L124.8,63.1L124.8,62.9Z M125.6,63.6L125.4,63.4L125.2,63.3L125.1,63.4L125.0,63.8L125.0,64.3L125.1,64.6L125.2,64.7L125.4,64.6L125.6,64.4L125.8,64.1L125.8,63.9Z M151.3,64.0L150.8,64.0L150.4,64.1L150.3,64.4L150.4,64.8L150.6,65.3L150.9,65.6L151.1,65.7L151.4,65.6L151.6,65.4L151.8,65.1L151.9,64.9L152.0,64.6L152.0,64.4L151.9,64.2L151.6,64.1Z M126.3,65.0L125.8,65.0L125.4,65.3L125.1,65.8L125.0,66.5L125.0,67.5L125.3,68.4L125.8,69.1L126.5,69.8L127.5,70.3L128.3,70.4L128.9,70.1L129.4,69.5L129.6,68.5L129.7,67.6L129.6,66.9L129.3,66.3L128.8,65.8L128.3,65.4L127.9,65.1L127.6,65.0L127.4,65.0L127.1,65.0L126.7,65.0Z M152.3,67.0L151.8,67.0L151.4,67.1L151.3,67.4L151.4,67.8L151.6,68.3L151.9,68.6L152.1,68.7L152.4,68.6L152.6,68.4L152.8,68.1L152.9,67.9L153.0,67.6L153.0,67.4L152.9,67.2L152.6,67.1Z M153.3,70.0L152.8,70.0L152.4,70.1L152.3,70.4L152.4,70.8L152.6,71.3L152.9,71.6L153.1,71.7L153.4,71.6L153.6,71.4L153.8,71.1L153.9,70.9L154.0,70.6L154.0,70.4L153.9,70.2L153.6,70.1Z M130.6,70.6L130.4,70.4L130.2,70.3L130.1,70.4L130.0,70.8L130.0,71.3L130.1,71.6L130.2,71.7L130.4,71.6L130.6,71.4L130.8,71.1L130.8,70.9Z M150.6,70.6L150.4,70.4L150.2,70.3L150.1,70.4L150.0,70.8L150.0,71.3L150.1,71.6L150.2,71.7L150.4,71.6L150.6,71.4L150.8,71.1L150.8,70.9Z M154.6,73.6L154.4,73.4L154.1,73.4L153.9,73.6L153.6,74.1L153.4,74.9L153.3,75.5L153.3,76.0L153.4,76.4L153.6,76.6L153.9,76.7L154.1,76.6L154.4,76.3L154.6,75.8L154.8,75.3L154.9,74.9L155.0,74.6L155.0,74.4L154.9,74.1L154.8,73.9Z M95.1,79.0L93.9,79.0L92.6,79.4L91.4,80.1L90.1,81.3L88.9,82.8L88.0,84.4L87.5,86.1L87.4,88.0L87.6,90.0L88.3,91.9L89.4,93.6L91.0,95.3L93.0,96.8L95.1,97.3L97.2,96.9L99.4,95.6L101.6,93.4L103.3,91.3L104.3,89.4L104.6,87.8L104.4,86.3L103.8,84.8L102.9,83.4L101.8,82.1L100.3,80.9L99.1,79.9L98.2,79.3L97.6,79.0L97.4,79.0L96.9,79.0L96.1,79.0Z M155.6,82.6L155.4,82.4L155.1,82.4L154.9,82.6L154.6,83.1L154.4,83.9L154.3,84.5L154.3,85.0L154.4,85.4L154.6,85.6L154.9,85.7L155.1,85.6L155.4,85.3L155.6,84.8L155.8,84.3L155.9,83.9L156.0,83.6L156.0,83.4L155.9,83.1L155.8,82.9Z M172.4,94.6L172.6,96.4L172.6,98.6L172.2,101.2L171.5,104.3L170.5,107.8L169.0,111.7L167.0,116.1L164.5,120.9L161.5,126.1L158.6,130.7L155.9,134.6L153.3,137.8L150.8,140.3L148.3,142.5L145.9,144.5L143.6,146.3L141.4,147.8L138.8,149.3L135.9,150.8L132.8,152.3L129.3,153.8L126.1,154.9L123.4,155.6L121.0,156.0L119.0,156.0L118.7,155.5L120.1,154.5L123.1,153.0L127.9,151.0L132.1,149.1L135.7,147.2L138.8,145.4L141.3,143.6L143.9,141.5L146.8,139.0L149.9,136.1L153.1,132.9L156.1,129.4L158.9,125.8L161.4,122.0L163.6,118.0L165.6,113.8L167.4,109.4L168.9,104.9L170.1,100.1L171.1,96.5L171.7,94.0L172.0,92.6L172.0,92.4L172.1,92.6L172.2,93.4Z M55.6,98.6L55.4,98.4L55.2,98.3L55.1,98.4L55.0,98.8L55.0,99.3L55.1,99.6L55.2,99.7L55.4,99.6L55.6,99.4L55.8,99.1L55.8,98.9Z M131.3,98.6L130.8,98.4L130.3,98.4L129.8,98.6L129.3,99.1L128.8,99.9L128.5,100.6L128.5,101.2L128.8,101.8L129.3,102.3L129.8,102.4L130.3,102.3L130.8,101.9L131.3,101.1L131.6,100.5L131.9,100.0L132.0,99.6L132.0,99.4L131.9,99.1L131.6,98.9Z M58.6,101.6L58.4,101.4L58.2,101.3L58.1,101.4L58.0,101.8L58.0,102.3L58.1,102.6L58.2,102.7L58.4,102.6L58.6,102.4L58.8,102.1L58.8,101.9Z M151.6,102.6L151.4,102.4L151.1,102.4L150.7,102.8L150.3,103.5L149.8,104.5L149.5,105.3L149.5,105.9L149.8,106.4L150.3,106.6L150.8,106.6L151.3,106.4L151.8,105.9L152.3,105.1L152.6,104.5L152.7,104.0L152.6,103.6L152.4,103.4L152.1,103.1L151.9,102.9Z M59.6,105.6L59.4,105.4L59.2,105.3L59.1,105.4L59.0,105.8L59.0,106.3L59.1,106.6L59.2,106.7L59.4,106.6L59.6,106.4L59.8,106.1L59.8,105.9Z M60.6,108.6L60.4,108.4L60.2,108.3L60.1,108.4L60.0,108.8L60.0,109.3L60.1,109.6L60.2,109.7L60.4,109.6L60.6,109.4L60.8,109.1L60.8,108.9Z M61.6,110.6L61.4,110.4L61.2,110.3L61.1,110.4L61.0,110.8L61.0,111.3L61.1,111.6L61.2,111.7L61.4,111.6L61.6,111.4L61.8,111.1L61.8,110.9Z M37.9,119.5L41.1,124.5L44.4,129.0L47.8,133.0L51.3,136.5L54.8,139.5L58.7,142.4L63.1,145.1L67.9,147.8L73.1,150.3L78.4,152.3L83.8,153.8L89.3,154.8L94.8,155.3L98.9,155.8L101.6,156.4L103.0,157.1L103.0,157.9L101.6,158.3L98.7,158.4L94.4,158.3L88.6,157.8L82.9,156.8L77.3,155.3L71.8,153.3L66.3,150.8L61.0,147.8L56.0,144.3L51.3,140.3L46.8,135.8L42.9,131.7L39.8,128.1L37.4,124.9L35.6,122.1L34.3,119.8L33.3,117.8L32.6,116.1L32.4,114.9L32.3,113.9L32.3,113.1L32.4,112.6L32.6,112.4L33.6,113.4L35.4,115.8Z M130.3,112.6L129.8,112.4L129.3,112.4L128.9,112.6L128.6,113.1L128.4,113.9L128.3,114.5L128.3,115.0L128.4,115.4L128.6,115.6L128.9,115.7L129.3,115.6L129.8,115.3L130.3,114.8L130.6,114.3L130.9,113.9L131.0,113.6L131.0,113.4L130.9,113.1L130.6,112.9Z M146.6,113.6L146.4,113.4L146.2,113.3L146.1,113.4L146.0,113.8L146.0,114.3L146.1,114.6L146.2,114.7L146.4,114.6L146.6,114.4L146.8,114.1L146.8,113.9Z M76.9,117.0L76.1,117.0L75.7,117.1L75.6,117.4L75.8,117.8L76.3,118.3L76.7,118.6L77.1,118.7L77.4,118.6L77.6,118.4L77.8,118.1L77.9,117.9L78.0,117.6L78.0,117.4L77.8,117.2L77.4,117.1Z M28.3,126.4L29.8,128.6L30.8,130.5L31.4,132.0L31.6,133.1L31.4,133.9L30.9,134.1L30.1,133.7L29.1,132.8L27.9,131.3L26.9,129.8L26.1,128.4L25.6,127.1L25.4,125.9L25.3,124.9L25.3,124.1L25.4,123.6L25.6,123.4L26.2,123.8L27.1,124.8Z M71.3,122.6L70.8,122.4L70.3,122.4L69.8,122.8L69.3,123.5L68.8,124.5L68.6,125.4L68.7,126.1L69.1,126.8L69.9,127.3L70.6,127.4L71.2,127.1L71.8,126.5L72.3,125.5L72.6,124.7L72.7,124.1L72.6,123.6L72.4,123.4L72.1,123.1L71.7,122.9Z M128.6,131.6L128.4,131.4L128.2,131.3L128.1,131.4L128.0,131.8L128.0,132.3L128.1,132.6L128.2,132.7L128.4,132.6L128.6,132.4L128.8,132.1L128.8,131.9Z M125.6,133.6L125.4,133.4L125.2,133.3L125.1,133.4L125.0,133.8L125.0,134.3L125.1,134.6L125.2,134.7L125.4,134.6L125.6,134.4L125.8,134.1L125.8,133.9Z M123.6,134.6L123.4,134.4L123.2,134.3L123.1,134.4L123.0,134.8L123.0,135.3L123.1,135.6L123.2,135.7L123.4,135.6L123.6,135.4L123.8,135.1L123.8,134.9Z M121.6,135.6L121.4,135.4L121.2,135.3L121.1,135.4L121.0,135.8L121.0,136.3L121.1,136.6L121.2,136.7L121.4,136.6L121.6,136.4L121.8,136.1L121.8,135.9Z M119.6,136.6L119.4,136.4L119.2,136.3L119.1,136.4L119.0,136.8L119.0,137.3L119.1,137.6L119.2,137.7L119.4,137.6L119.6,137.4L119.8,137.1L119.8,136.9Z M116.6,137.6L116.4,137.4L116.2,137.3L116.1,137.4L116.0,137.8L116.0,138.3L116.1,138.6L116.2,138.7L116.4,138.6L116.6,138.4L116.8,138.1L116.8,137.9Z M112.5,139.0L111.5,139.0L110.8,139.1L110.4,139.4L110.4,139.8L110.6,140.3L110.9,140.6L111.3,140.7L111.8,140.6L112.3,140.4L112.7,140.1L113.1,139.9L113.4,139.6L113.6,139.4L113.6,139.2L113.2,139.1Z" fill="#022628"/></svg>